<svg id="svg" xmlns="http://www.w3.org/2000/svg" xmlns:xlink="http://www.w3.org/1999/xlink" width="400" height="371.875" viewBox="0, 0, 400,371.875"><g id="svgg"><path id="path0" d="M192.604 0.290 C 190.830 1.068,189.985 2.532,188.444 7.500 C 181.808 28.892,171.449 57.298,162.483 78.695 C 142.399 126.626,120.868 165.826,97.429 197.137 C 96.163 198.827,95.062 200.140,94.982 200.053 C 94.902 199.967,94.173 198.626,93.361 197.075 C 91.522 193.562,91.057 193.079,89.393 192.958 L 88.161 192.869 75.070 199.891 C 60.704 207.596,61.412 207.166,60.908 208.486 C 60.375 209.882,60.512 210.207,65.728 219.896 L 70.438 228.646 69.580 229.448 L 68.721 230.250 67.954 229.349 C 63.634 224.270,55.028 214.675,54.511 214.361 C 53.521 213.757,52.128 213.827,51.107 214.531 C 48.694 216.196,28.757 234.053,28.448 234.827 C 27.620 236.896,27.250 236.400,42.046 253.074 C 46.096 257.637,47.107 258.159,49.212 256.766 C 49.981 256.257,50.137 256.225,50.837 256.435 C 51.262 256.562,51.852 256.667,52.147 256.667 C 53.165 256.667,52.894 257.033,50.046 259.507 C 48.474 260.873,45.485 263.466,43.404 265.270 C 39.426 268.719,39.160 269.062,39.174 270.708 C 39.185 271.928,38.900 271.569,47.989 281.840 C 57.367 292.438,57.457 292.514,59.642 291.592 C 60.945 291.043,82.364 271.843,82.721 270.904 C 83.296 269.393,82.953 268.479,80.975 266.250 C 80.111 265.276,79.471 264.455,79.553 264.425 C 79.635 264.395,82.230 264.974,85.320 265.712 C 126.718 275.602,170.385 277.706,223.646 272.378 C 244.046 270.337,262.780 267.791,303.206 261.566 C 325.548 258.125,329.809 257.494,334.099 256.995 C 340.118 256.294,342.179 253.750,340.303 249.341 C 339.900 248.393,339.518 246.640,338.951 243.125 C 331.380 196.185,321.084 162.867,304.011 130.054 L 301.166 124.587 300.891 125.662 C 300.739 126.253,300.430 127.037,300.204 127.403 C 299.898 127.897,299.791 128.442,299.790 129.504 C 299.786 131.834,298.767 133.538,296.771 134.553 C 296.132 134.878,281.480 140.931,279.010 141.891 C 278.556 142.068,278.572 142.102,279.496 142.954 C 280.971 144.314,281.030 144.506,284.453 158.987 C 286.224 166.476,287.970 173.401,288.334 174.375 C 289.681 177.980,291.507 183.339,292.945 187.906 L 294.424 192.604 303.695 211.354 C 308.794 221.667,313.209 230.667,313.507 231.354 C 314.265 233.109,314.287 236.358,313.554 238.229 C 313.284 238.917,313.004 240.135,312.931 240.938 C 312.676 243.757,313.191 243.345,302.085 249.595 C 294.151 254.060,293.345 254.467,292.277 254.544 C 288.362 254.827,286.111 249.344,289.194 247.033 C 289.580 246.743,291.672 245.509,293.843 244.289 C 296.014 243.069,297.832 242.029,297.884 241.977 C 298.065 241.796,295.755 237.083,295.485 237.083 C 295.336 237.083,294.720 237.271,294.117 237.501 C 292.878 237.973,285.819 240.205,281.206 241.582 C 269.560 245.059,256.397 248.123,242.850 250.512 C 238.767 251.232,237.964 251.527,237.924 252.325 C 237.920 252.401,237.430 252.705,236.834 253.002 L 235.752 253.542 228.836 253.542 C 223.014 253.542,221.101 253.623,216.741 254.057 C 211.205 254.608,205.628 255.042,198.750 255.457 C 193.040 255.802,171.377 255.801,166.146 255.456 C 152.531 254.557,143.988 253.519,134.014 251.550 C 132.017 251.156,130.320 250.812,130.244 250.787 C 130.167 250.761,135.682 250.691,142.500 250.630 C 154.783 250.522,154.902 250.517,155.625 250.066 C 157.161 249.109,157.083 249.903,157.083 235.176 C 157.082 220.403,157.155 221.129,155.582 220.271 C 154.436 219.645,124.464 219.696,123.622 220.325 C 122.079 221.477,122.188 220.344,122.188 235.330 C 122.188 244.194,122.117 248.728,121.979 248.675 C 121.865 248.631,121.232 248.425,120.573 248.218 L 119.375 247.841 119.375 246.823 C 119.375 245.468,119.560 245.750,114.094 238.750 C 106.475 228.993,103.338 225.190,102.678 224.913 L 102.081 224.662 105.096 222.018 L 108.111 219.375 121.715 219.375 C 136.901 219.375,136.199 219.441,137.240 217.917 L 137.708 217.230 137.708 204.358 C 137.708 195.769,137.635 191.290,137.487 190.899 C 137.151 190.009,136.257 189.185,135.369 188.946 C 134.816 188.797,134.622 188.652,134.734 188.472 C 134.823 188.329,135.606 187.138,136.473 185.825 C 145.535 172.109,153.377 156.417,161.179 136.390 C 165.817 124.484,168.326 117.317,179.135 85.104 C 190.679 50.702,190.248 51.905,191.172 51.484 C 192.102 51.061,194.890 52.658,196.276 54.408 C 196.618 54.840,197.807 55.824,198.918 56.594 C 201.657 58.493,205.060 60.989,207.770 63.086 L 210.019 64.827 212.145 63.763 C 220.505 59.579,230.357 61.967,235.751 69.486 C 239.455 74.649,239.980 81.957,237.061 87.750 C 236.099 89.659,236.284 89.808,238.646 89.026 C 243.002 87.583,248.436 88.599,252.316 91.582 L 253.486 92.481 253.598 91.240 C 253.731 89.778,254.430 88.454,255.561 87.521 C 257.071 86.277,257.312 86.250,267.120 86.250 C 273.543 86.250,276.042 86.185,276.042 86.018 C 276.042 85.497,266.901 73.937,260.329 66.146 C 245.223 48.236,225.338 27.810,202.292 6.529 C 200.286 4.677,198.194 2.637,197.641 1.994 C 196.055 0.150,194.288 -0.448,192.604 0.290 M257.140 97.728 C 257.723 98.652,274.727 128.840,275.286 129.945 L 275.838 131.037 276.721 130.685 C 277.207 130.492,280.276 129.242,283.542 127.907 L 289.479 125.480 289.479 115.269 L 289.479 105.057 287.034 101.388 L 284.590 97.720 271.097 97.662 C 263.612 97.630,257.430 97.520,257.214 97.416 C 256.847 97.239,256.843 97.258,257.140 97.728 M135.731 189.467 C 137.353 190.144,137.290 189.564,137.291 203.927 C 137.292 218.427,137.355 217.844,135.705 218.574 C 134.266 219.210,105.322 219.072,104.455 218.425 C 103.310 217.569,103.258 216.961,103.185 203.542 C 103.112 189.899,103.065 190.369,104.596 189.547 C 105.567 189.026,134.498 188.951,135.731 189.467 M90.630 193.802 C 91.192 194.183,92.433 196.336,97.269 205.313 C 103.979 217.769,103.985 217.785,102.604 219.153 C 101.413 220.333,76.304 233.611,75.263 233.611 C 73.686 233.611,73.632 233.532,67.451 222.069 C 60.644 209.448,60.858 209.917,61.347 208.636 C 61.780 207.501,60.319 208.368,76.146 199.855 C 89.329 192.764,89.187 192.823,90.630 193.802 M54.067 214.623 C 54.467 214.805,66.010 227.719,71.203 233.794 C 71.692 234.366,71.751 235.835,71.315 236.593 C 70.754 237.567,49.125 256.504,48.206 256.825 C 46.482 257.427,46.648 257.576,37.526 247.214 C 28.073 236.477,28.638 237.230,28.727 235.485 C 28.766 234.727,29.467 234.065,40.556 224.316 C 52.592 213.736,52.409 213.868,54.067 214.623 M155.862 221.230 L 156.676 222.043 156.619 235.309 L 156.563 248.574 155.784 249.287 L 155.006 250.000 139.743 249.999 C 122.628 249.998,123.609 250.086,122.848 248.483 C 122.358 247.450,122.314 223.140,122.800 221.977 C 123.486 220.335,122.578 220.418,139.764 220.417 L 155.049 220.417 155.862 221.230 M131.823 221.821 C 132.539 221.862,133.711 221.862,134.427 221.821 C 135.143 221.780,134.557 221.747,133.125 221.747 C 131.693 221.747,131.107 221.780,131.823 221.821 M102.676 225.336 C 102.980 225.520,103.426 225.919,103.667 226.221 C 105.337 228.316,117.872 244.396,118.356 245.064 C 119.035 246.002,119.152 247.147,118.663 248.091 C 118.438 248.528,99.371 263.662,95.278 266.654 C 94.499 267.223,93.226 267.319,92.390 266.872 C 91.876 266.597,76.876 247.649,76.282 246.524 C 75.247 244.565,75.127 244.686,88.404 234.313 C 101.843 223.814,101.021 224.331,102.676 225.336 M64.759 248.978 C 65.304 249.168,77.268 262.347,81.823 267.774 C 82.561 268.654,82.733 269.886,82.261 270.922 C 81.979 271.541,60.250 290.821,59.421 291.189 C 58.617 291.544,57.908 291.515,57.149 291.094 C 56.143 290.536,39.855 272.012,39.683 271.231 C 39.281 269.399,38.704 270.004,52.259 258.033 C 63.557 248.056,63.088 248.396,64.759 248.978 " stroke="none" fill="#fb1010" fill-rule="evenodd"></path><path id="path1" d="M185.395 1.267 C 179.245 1.911,177.776 4.158,172.806 20.521 C 170.520 28.045,165.281 43.521,160.427 57.083 C 157.715 64.661,157.261 65.904,156.961 66.563 C 156.805 66.906,155.609 70.000,154.303 73.438 C 152.997 76.875,151.405 80.953,150.766 82.500 C 150.126 84.047,148.950 86.953,148.153 88.958 C 147.355 90.964,146.308 93.495,145.827 94.583 C 145.346 95.672,144.177 98.444,143.229 100.743 C 142.282 103.042,141.038 105.901,140.467 107.097 C 139.431 109.263,137.837 112.846,136.767 115.413 C 136.458 116.155,135.245 118.733,134.073 121.142 C 132.901 123.550,131.316 126.927,130.549 128.646 C 129.783 130.365,128.926 132.146,128.644 132.604 C 128.362 133.063,127.814 134.094,127.426 134.896 C 125.476 138.927,121.607 146.575,121.471 146.667 C 121.314 146.773,118.385 152.249,116.569 155.833 C 115.255 158.427,114.571 159.640,114.280 159.896 C 114.048 160.100,112.085 163.466,110.515 166.354 C 107.789 171.370,106.793 173.064,106.353 173.438 C 106.104 173.649,103.291 178.230,100.297 183.303 C 99.394 184.833,98.407 186.333,98.104 186.637 C 97.802 186.940,96.372 188.965,94.928 191.137 L 92.303 195.086 93.573 197.491 C 94.272 198.814,94.908 199.967,94.986 200.053 C 95.191 200.281,100.468 193.195,105.732 185.625 C 136.930 140.760,167.542 74.653,188.954 5.906 C 189.464 4.268,190.052 2.828,190.417 2.324 L 191.027 1.482 190.149 1.375 C 188.196 1.139,186.902 1.110,185.395 1.267 M191.129 51.490 C 190.252 51.912,190.597 50.947,179.135 85.104 C 168.326 117.317,165.817 124.484,161.179 136.390 C 153.377 156.417,145.535 172.109,136.473 185.825 C 135.606 187.138,134.823 188.329,134.734 188.472 C 134.622 188.652,134.816 188.797,135.369 188.946 C 137.363 189.482,137.708 190.471,137.708 195.639 C 137.708 197.923,137.751 199.792,137.803 199.792 C 137.855 199.792,159.664 190.882,186.268 179.993 C 212.872 169.103,234.669 160.224,234.706 160.262 C 234.744 160.299,232.232 169.467,229.125 180.634 C 222.461 204.585,222.514 204.281,224.610 206.578 C 225.001 207.007,224.997 207.015,224.229 207.516 C 223.249 208.154,222.164 209.571,221.885 210.578 C 221.744 211.083,221.669 217.296,221.668 228.385 L 221.667 245.417 218.344 245.417 C 216.516 245.417,214.544 245.519,213.963 245.644 C 210.283 246.433,209.656 251.459,213.021 253.185 L 213.646 253.506 213.125 253.621 C 211.687 253.939,197.565 255.205,192.396 255.480 C 191.672 255.518,192.067 255.562,193.333 255.583 C 197.176 255.649,208.897 254.869,217.860 253.952 C 220.980 253.632,223.400 253.542,228.809 253.542 L 235.752 253.542 236.834 253.002 C 237.430 252.705,237.920 252.401,237.924 252.325 C 237.964 251.527,238.767 251.232,242.850 250.512 C 256.397 248.123,269.560 245.059,281.206 241.582 C 285.819 240.205,292.878 237.973,294.117 237.501 C 294.720 237.271,295.336 237.083,295.485 237.083 C 295.755 237.083,298.065 241.796,297.884 241.977 C 297.832 242.029,296.014 243.069,293.843 244.289 C 291.672 245.509,289.580 246.743,289.194 247.033 C 286.111 249.344,288.362 254.827,292.277 254.544 C 293.345 254.467,294.151 254.060,302.085 249.595 C 313.191 243.345,312.676 243.757,312.931 240.938 C 313.004 240.135,313.284 238.917,313.554 238.229 C 314.287 236.358,314.265 233.109,313.507 231.354 C 313.209 230.667,308.794 221.667,303.695 211.354 L 294.424 192.604 292.945 187.906 C 291.507 183.339,289.681 177.980,288.334 174.375 C 287.970 173.401,286.224 166.476,284.453 158.987 C 281.030 144.506,280.971 144.314,279.496 142.954 C 278.572 142.102,278.556 142.068,279.010 141.891 C 281.480 140.931,296.132 134.878,296.771 134.553 C 298.767 133.538,299.786 131.834,299.790 129.504 C 299.791 128.445,299.899 127.897,300.201 127.408 C 301.195 125.800,301.250 125.039,301.250 112.911 C 301.250 105.740,301.168 101.078,301.027 100.299 C 300.695 98.459,299.304 96.601,297.814 96.010 C 297.470 95.873,297.162 95.744,297.130 95.723 C 297.099 95.701,297.325 95.197,297.634 94.603 C 299.126 91.726,297.804 87.973,294.810 86.588 C 293.566 86.013,259.072 86.000,257.285 86.575 C 255.269 87.223,253.793 89.090,253.598 91.240 L 253.486 92.481 252.316 91.582 C 248.436 88.599,243.002 87.583,238.646 89.026 C 236.284 89.808,236.099 89.659,237.061 87.750 C 239.980 81.957,239.455 74.649,235.751 69.486 C 230.357 61.967,220.505 59.579,212.145 63.763 L 210.019 64.827 207.770 63.086 C 205.056 60.985,201.656 58.492,198.904 56.584 C 197.785 55.808,196.625 54.852,196.325 54.460 C 194.958 52.668,192.090 51.029,191.129 51.490 M189.005 71.952 C 189.263 72.149,189.423 72.754,189.578 74.122 C 189.984 77.706,191.327 78.665,193.160 76.679 C 194.127 75.633,193.736 75.510,196.449 77.710 C 197.721 78.742,199.111 79.815,199.538 80.094 C 201.581 81.433,202.284 82.298,202.678 83.958 C 204.225 90.482,209.496 95.666,216.213 97.270 C 217.661 97.616,217.963 97.774,218.710 98.572 L 219.560 99.479 218.962 99.951 C 215.401 102.761,213.286 109.136,214.213 114.271 L 214.363 115.104 211.778 115.031 C 207.990 114.924,206.391 115.601,205.052 117.880 L 204.479 118.854 204.420 130.251 C 204.372 139.658,204.412 141.770,204.654 142.347 L 204.946 143.046 203.936 143.405 C 202.710 143.840,203.009 143.570,189.794 156.220 C 176.537 168.911,177.409 167.969,176.871 170.186 L 176.536 171.563 162.174 177.444 C 154.275 180.678,147.470 183.463,147.051 183.632 L 146.289 183.940 147.954 180.459 C 148.870 178.545,150.397 175.385,151.349 173.438 C 152.301 171.490,153.940 167.833,154.993 165.313 C 156.046 162.792,157.072 160.401,157.273 160.000 C 157.475 159.599,158.353 157.396,159.225 155.104 C 160.097 152.813,161.438 149.297,162.205 147.292 C 164.763 140.600,170.821 122.761,174.550 110.938 C 182.132 86.902,184.888 78.585,186.256 75.625 C 186.811 74.422,187.388 73.039,187.538 72.552 C 187.829 71.604,188.295 71.414,189.005 71.952 M272.917 97.727 C 281.339 97.802,288.716 97.875,289.311 97.890 L 290.393 97.917 289.941 98.906 C 289.492 99.887,289.488 100.006,289.484 112.688 L 289.479 125.479 283.542 127.907 C 280.276 129.242,277.207 130.492,276.721 130.685 L 275.838 131.037 275.286 129.945 C 274.727 128.840,257.723 98.652,257.140 97.728 C 256.843 97.258,256.847 97.239,257.214 97.409 C 257.428 97.510,264.495 97.653,272.917 97.727 M226.263 137.188 C 229.690 143.260,232.502 148.323,232.512 148.438 C 232.527 148.610,201.862 161.323,201.753 161.189 C 201.733 161.165,203.723 159.230,206.175 156.888 C 211.748 151.564,212.581 150.082,211.606 147.220 L 211.288 146.287 212.571 146.149 C 214.231 145.971,215.845 145.192,216.754 144.130 C 218.110 142.545,218.125 142.419,218.127 132.098 L 218.128 122.813 219.080 124.479 C 219.604 125.396,222.836 131.115,226.263 137.188 M261.947 163.367 C 268.204 177.616,271.352 186.029,275.340 199.167 C 278.243 208.733,282.004 224.865,282.503 229.896 C 282.628 231.156,282.975 232.976,283.275 233.939 C 284.155 236.768,284.552 236.512,273.542 240.212 C 263.898 243.452,253.930 246.207,243.775 248.439 C 239.186 249.447,238.712 249.458,239.093 248.542 C 239.805 246.831,239.800 246.988,239.743 228.685 C 239.692 212.090,239.660 210.676,239.325 210.023 L 238.962 209.318 239.709 208.490 C 240.780 207.305,240.509 208.185,246.769 185.538 C 253.249 162.092,253.252 162.076,251.520 160.162 C 251.082 159.677,251.272 159.506,252.708 159.087 C 253.339 158.904,254.884 158.203,256.144 157.529 L 258.433 156.304 259.717 158.759 C 260.423 160.109,261.427 162.183,261.947 163.367 M104.596 189.547 C 103.065 190.369,103.112 189.899,103.185 203.542 C 103.258 216.961,103.310 217.569,104.455 218.425 C 105.322 219.072,134.266 219.210,135.705 218.574 C 137.355 217.844,137.292 218.427,137.291 203.927 C 137.290 189.564,137.353 190.144,135.731 189.467 C 134.498 188.951,105.567 189.026,104.596 189.547 M76.146 199.855 C 60.319 208.368,61.780 207.501,61.347 208.636 C 60.858 209.917,60.644 209.448,67.451 222.069 C 73.632 233.532,73.686 233.611,75.263 233.611 C 76.304 233.611,101.413 220.333,102.604 219.153 C 103.985 217.785,103.979 217.769,97.269 205.313 C 90.793 193.292,90.814 193.322,89.084 193.344 C 88.370 193.354,86.235 194.428,76.146 199.855 M51.834 214.645 C 51.208 214.925,30.154 233.364,29.295 234.384 C 28.761 235.018,28.659 235.408,28.748 236.458 C 28.821 237.318,28.916 237.435,37.526 247.214 C 46.648 257.576,46.482 257.427,48.206 256.825 C 49.125 256.504,70.754 237.567,71.315 236.593 C 71.751 235.835,71.692 234.366,71.203 233.794 C 66.010 227.719,54.467 214.805,54.067 214.623 C 53.384 214.312,52.561 214.320,51.834 214.645 M105.051 222.033 L 102.081 224.662 102.678 224.913 C 103.048 225.068,104.448 226.619,106.359 228.988 C 108.055 231.092,109.509 232.890,109.591 232.984 C 109.673 233.079,111.075 231.696,112.707 229.911 C 114.340 228.127,115.789 226.667,115.927 226.667 C 116.302 226.667,122.500 219.878,122.500 219.468 C 122.500 219.417,119.242 219.381,115.260 219.389 L 108.021 219.403 105.051 222.033 M123.790 220.839 C 122.479 221.638,122.500 221.406,122.500 235.222 C 122.500 249.087,122.471 248.774,123.837 249.607 C 124.450 249.981,125.177 249.998,139.743 249.999 L 155.006 250.000 155.784 249.287 L 156.563 248.574 156.619 235.309 L 156.676 222.043 155.862 221.230 L 155.049 220.417 139.764 220.417 C 124.801 220.418,124.465 220.427,123.790 220.839 M134.427 221.821 C 133.711 221.862,132.539 221.862,131.823 221.821 C 131.107 221.780,131.693 221.747,133.125 221.747 C 134.557 221.747,135.143 221.780,134.427 221.821 M100.109 225.252 C 99.160 225.801,77.066 243.190,76.576 243.771 C 75.988 244.471,75.855 245.715,76.282 246.524 C 76.876 247.649,91.876 266.597,92.390 266.872 C 93.226 267.319,94.499 267.223,95.278 266.654 C 99.371 263.662,118.438 248.528,118.663 248.091 C 119.152 247.147,119.035 246.002,118.356 245.064 C 117.872 244.396,105.337 228.316,103.667 226.221 C 102.763 225.087,101.151 224.647,100.109 225.252 M68.092 226.042 C 67.838 226.385,67.522 226.667,67.389 226.667 C 66.475 226.667,66.394 227.483,67.211 228.458 C 67.656 228.990,68.173 229.616,68.359 229.849 C 68.693 230.268,68.707 230.264,69.574 229.455 L 70.451 228.637 69.582 227.027 C 68.579 225.166,68.687 225.238,68.092 226.042 M23.021 244.693 C 17.472 247.692,17.718 247.040,20.300 251.904 C 23.110 257.196,22.368 257.023,28.333 253.783 C 33.894 250.763,33.667 251.415,30.921 246.335 C 28.231 241.358,28.923 241.502,23.021 244.693 M62.780 248.958 C 62.331 249.139,43.251 265.894,40.991 268.092 C 39.727 269.321,39.424 270.049,39.683 271.231 C 39.855 272.012,56.143 290.536,57.149 291.094 C 58.820 292.021,58.528 292.229,71.005 281.192 C 82.375 271.134,82.500 271.007,82.500 269.489 C 82.500 268.399,83.402 269.515,73.280 258.087 C 64.661 248.357,64.537 248.249,62.780 248.958 M41.168 253.584 C 39.778 257.841,40.601 267.518,42.242 266.218 C 42.679 265.872,49.834 259.714,51.608 258.158 C 52.949 256.981,53.063 256.667,52.147 256.667 C 51.852 256.667,51.262 256.562,50.837 256.435 C 50.137 256.225,49.981 256.257,49.212 256.766 C 47.035 258.206,46.194 257.753,41.767 252.751 C 41.580 252.539,41.450 252.720,41.168 253.584 M187.663 255.779 C 188.269 255.821,189.206 255.821,189.747 255.778 C 190.287 255.735,189.792 255.701,188.646 255.701 C 187.500 255.702,187.058 255.737,187.663 255.779 M328.958 257.633 C 327.068 257.907,315.490 259.675,303.229 261.561 C 262.192 267.873,244.116 270.330,223.646 272.378 C 170.385 277.706,126.718 275.602,85.320 265.712 C 82.230 264.974,79.635 264.395,79.554 264.425 C 79.472 264.455,80.148 265.320,81.056 266.347 C 84.118 269.814,83.974 270.234,77.829 275.729 C 76.292 277.104,75.026 278.276,75.017 278.334 C 75.008 278.392,76.455 278.809,78.232 279.262 C 80.010 279.714,81.440 280.144,81.410 280.218 C 81.379 280.291,80.135 281.452,78.646 282.797 C 74.886 286.192,74.855 285.573,79.023 290.156 C 82.505 293.985,81.890 294.017,86.594 289.758 C 91.490 285.325,91.295 285.829,89.063 283.374 C 87.185 281.310,87.204 281.426,88.802 281.800 C 113.986 287.689,146.429 290.556,176.875 289.583 C 205.533 288.668,233.214 285.568,281.042 277.916 C 293.497 275.923,317.399 272.085,321.901 271.354 C 330.714 269.925,333.562 267.223,333.891 259.983 L 334.023 257.083 333.209 257.109 C 332.762 257.122,330.849 257.358,328.958 257.633 M24.102 268.513 C 21.425 271.217,20.415 272.371,20.411 272.732 C 20.402 273.442,26.733 279.583,27.473 279.583 C 27.937 279.583,34.666 272.998,35.273 271.950 C 35.587 271.409,35.216 270.927,32.119 267.855 C 28.083 263.851,28.775 263.795,24.102 268.513 M9.399 288.712 C 6.337 293.602,6.350 293.575,6.632 294.102 C 7.005 294.798,14.304 299.230,14.852 299.092 C 15.545 298.918,20.885 290.410,20.794 289.626 C 20.709 288.898,13.846 284.417,12.776 284.391 C 12.137 284.376,12.023 284.521,9.399 288.712 M248.542 285.979 C 245.047 286.273,242.154 286.543,242.112 286.578 C 242.071 286.614,243.847 291.899,246.060 298.322 L 250.083 310.000 250.823 309.995 C 252.100 309.988,258.360 309.417,258.480 309.298 C 258.542 309.236,257.912 307.209,257.080 304.795 C 255.360 299.810,255.361 300.013,257.073 300.709 C 258.724 301.379,260.153 302.633,263.125 306.017 C 265.341 308.540,265.576 308.745,266.253 308.747 C 267.260 308.751,274.656 308.122,274.754 308.024 C 274.928 307.850,266.403 299.308,264.916 298.167 C 264.584 297.911,264.349 297.673,264.395 297.637 C 264.441 297.601,264.826 297.314,265.250 296.998 C 268.215 294.793,266.775 289.247,262.626 286.892 C 259.951 285.375,257.564 285.220,248.542 285.979 M30.744 287.202 C 30.564 287.382,30.416 287.640,30.416 287.775 C 30.416 287.910,30.229 289.943,30.000 292.292 C 29.454 297.902,29.457 298.287,30.052 298.546 C 30.814 298.877,38.979 299.587,39.404 299.359 C 39.855 299.118,39.880 298.962,40.421 293.182 C 40.990 287.088,41.584 287.780,35.286 287.190 C 31.142 286.802,31.145 286.802,30.744 287.202 M228.818 287.579 C 224.444 287.938,220.828 288.278,220.783 288.335 C 220.739 288.391,222.499 293.641,224.695 300.000 L 228.688 311.563 229.328 311.627 C 229.680 311.662,233.523 311.404,237.869 311.054 C 242.214 310.703,245.824 310.417,245.890 310.417 C 246.042 310.417,244.384 305.380,244.146 305.121 C 243.983 304.942,237.699 305.278,236.117 305.550 L 235.463 305.663 234.904 303.982 C 234.189 301.835,233.968 301.989,238.220 301.673 C 240.230 301.524,241.875 301.322,241.875 301.224 C 241.875 301.079,240.210 296.044,240.112 295.892 C 240.096 295.867,238.493 295.982,236.552 296.148 C 234.610 296.314,232.866 296.452,232.677 296.454 C 232.330 296.458,231.059 293.455,231.304 293.210 C 231.366 293.148,233.290 292.947,235.578 292.765 L 239.738 292.434 238.809 289.654 C 237.920 286.994,237.856 286.876,237.326 286.900 C 237.020 286.914,233.192 287.219,228.818 287.579 M198.021 290.045 C 195.156 290.282,192.787 290.496,192.756 290.521 C 192.699 290.565,200.634 313.778,200.759 313.937 C 200.919 314.138,214.587 312.893,215.634 312.582 C 225.757 309.579,222.204 294.083,210.521 290.280 C 208.249 289.541,204.871 289.477,198.021 290.045 M256.933 291.013 C 259.842 292.811,258.767 295.514,254.995 295.887 L 254.052 295.980 253.172 293.453 C 252.688 292.063,252.292 290.865,252.292 290.791 C 252.292 290.226,255.943 290.401,256.933 291.013 M61.664 294.180 C 56.645 298.541,56.756 297.783,60.505 302.083 C 64.344 306.487,63.549 306.468,68.373 302.276 C 73.505 297.817,73.387 298.610,69.565 294.211 C 65.845 289.931,66.551 289.934,61.664 294.180 M183.177 291.213 C 180.971 291.389,179.167 291.603,179.167 291.688 C 179.167 291.774,180.054 294.261,181.138 297.215 C 182.222 300.169,183.072 302.622,183.027 302.667 C 182.982 302.712,180.035 300.394,176.478 297.516 L 170.009 292.282 166.105 292.610 C 163.958 292.791,162.173 292.966,162.140 292.999 C 162.091 293.048,169.979 316.211,170.113 316.413 C 170.151 316.470,178.605 315.816,178.687 315.750 C 178.709 315.732,178.114 314.032,177.365 311.973 C 176.615 309.914,175.684 307.354,175.295 306.285 L 174.589 304.341 175.576 305.158 C 183.425 311.661,187.779 314.999,188.398 314.990 C 189.778 314.968,195.429 314.432,195.550 314.311 C 195.749 314.113,187.672 290.830,187.416 290.863 C 187.290 290.880,185.383 291.037,183.177 291.213 M152.813 293.654 C 151.208 293.803,149.732 293.932,149.531 293.941 C 148.996 293.966,148.974 293.887,151.474 301.129 C 154.549 310.037,154.514 311.154,151.166 311.142 C 148.318 311.132,147.741 310.270,144.780 301.615 C 143.495 297.856,142.353 294.725,142.244 294.658 C 142.031 294.527,135.548 294.962,134.447 295.181 L 133.789 295.313 136.341 302.708 C 139.557 312.027,140.121 313.143,142.700 315.276 C 147.111 318.925,156.556 319.194,160.878 315.794 C 163.797 313.497,163.682 311.108,160.161 300.938 L 157.565 293.438 156.647 293.410 C 156.142 293.396,154.417 293.505,152.813 293.654 M208.229 296.533 C 210.242 297.475,211.743 299.470,212.417 302.101 C 213.179 305.075,211.901 306.701,208.566 307.001 L 207.188 307.126 205.296 301.584 L 203.405 296.042 205.296 296.044 C 206.840 296.045,207.379 296.135,208.229 296.533 M45.364 302.865 C 43.805 304.607,39.375 310.992,39.375 311.495 C 39.375 312.418,46.546 317.693,47.370 317.377 C 47.723 317.242,53.400 309.706,53.783 308.864 C 54.120 308.126,53.916 307.917,50.105 305.102 C 46.556 302.480,45.959 302.198,45.364 302.865 M13.182 305.469 C 12.499 306.350,8.125 314.365,8.125 314.736 C 8.125 315.502,15.176 319.792,16.436 319.792 C 17.028 319.792,19.297 316.243,21.913 311.224 C 22.590 309.925,22.385 309.711,18.186 307.326 C 14.577 305.277,13.610 304.918,13.182 305.469 M386.042 311.123 C 382.165 311.489,381.363 311.620,381.405 311.877 C 381.432 312.048,382.391 315.135,383.536 318.736 C 384.681 322.338,385.591 325.311,385.559 325.343 C 385.528 325.375,382.084 322.546,377.907 319.057 C 371.704 313.874,370.198 312.711,369.688 312.706 C 368.468 312.694,361.048 313.409,360.800 313.563 C 360.561 313.710,368.556 341.453,368.981 341.953 C 369.110 342.105,379.145 341.331,379.328 341.156 C 379.373 341.112,375.526 328.728,375.090 327.512 C 375.000 327.262,375.046 327.265,375.356 327.529 C 375.561 327.704,378.917 330.503,382.813 333.748 C 386.708 336.994,390.037 339.769,390.209 339.914 C 390.463 340.130,391.305 340.105,394.688 339.784 C 396.979 339.567,399.112 339.386,399.427 339.382 C 399.786 339.378,400.000 339.262,400.000 339.072 C 400.000 338.829,394.445 319.862,392.173 312.344 C 391.719 310.841,391.595 310.628,391.191 310.653 C 390.937 310.668,388.620 310.879,386.042 311.123 M28.679 314.531 C 25.980 318.811,23.698 323.158,23.909 323.620 C 24.287 324.450,31.770 328.656,32.376 328.380 C 32.989 328.101,37.917 319.673,37.917 318.905 C 37.917 318.246,37.777 318.144,33.471 315.656 C 29.722 313.491,29.385 313.412,28.679 314.531 M337.779 315.086 C 327.239 317.095,323.950 327.046,330.594 336.829 C 338.144 347.948,357.970 347.029,360.220 335.455 C 362.498 323.743,350.326 312.695,337.779 315.086 M313.125 317.790 C 308.680 318.210,308.441 318.254,308.506 318.648 C 308.574 319.058,316.701 346.706,316.793 346.841 C 316.845 346.916,326.939 346.026,327.042 345.936 C 327.342 345.675,318.606 317.295,318.232 317.319 C 318.001 317.334,315.703 317.546,313.125 317.790 M290.153 319.883 C 283.764 320.485,278.496 321.018,278.447 321.067 C 278.345 321.169,280.507 328.493,280.695 328.681 C 280.762 328.748,282.476 328.650,284.503 328.462 C 286.530 328.273,288.207 328.144,288.231 328.174 C 288.254 328.204,289.639 332.856,291.310 338.510 C 292.980 344.165,294.384 348.829,294.430 348.874 C 294.638 349.083,304.583 348.034,304.583 347.804 C 304.583 347.622,299.322 329.630,298.647 327.504 C 298.550 327.198,298.963 327.120,302.197 326.831 C 304.210 326.651,305.903 326.458,305.960 326.402 C 306.016 326.345,305.564 324.624,304.955 322.576 L 303.847 318.854 302.809 318.821 C 302.238 318.802,296.543 319.280,290.153 319.883 M265.393 321.674 C 245.347 323.484,251.337 351.457,271.771 351.457 C 275.096 351.457,282.334 349.401,282.290 348.470 C 282.278 348.218,279.793 340.140,279.698 340.046 C 279.626 339.973,279.312 340.076,279.002 340.275 C 272.983 344.130,266.286 342.785,264.339 337.330 C 262.275 331.547,267.975 328.336,275.663 330.951 C 276.977 331.398,277.119 331.412,277.031 331.089 C 276.976 330.891,276.385 328.881,275.717 326.622 L 274.502 322.515 273.137 322.211 C 271.920 321.940,271.157 321.846,268.021 321.582 C 267.563 321.544,266.380 321.585,265.393 321.674 M344.419 324.034 C 347.165 324.860,349.240 327.763,349.529 331.180 C 349.974 336.443,342.365 337.339,339.452 332.368 C 336.405 327.168,339.208 322.466,344.419 324.034 M6.460 326.162 C 1.381 328.900,1.458 328.849,1.458 329.506 C 1.458 330.729,5.607 337.917,6.313 337.917 C 6.783 337.917,15.642 333.222,15.881 332.847 C 16.207 332.335,15.984 331.752,14.131 328.274 C 11.327 323.010,11.975 323.189,6.460 326.162 M238.445 324.614 C 236.158 324.837,234.243 325.063,234.190 325.115 C 234.137 325.168,235.139 328.750,236.415 333.075 C 239.515 343.573,239.512 343.558,238.340 345.049 C 237.340 346.319,234.539 346.427,232.913 345.257 C 231.348 344.131,231.047 343.409,228.420 334.479 C 227.072 329.896,225.902 326.067,225.820 325.971 C 225.707 325.838,215.674 326.594,215.480 326.751 C 215.396 326.818,220.629 344.316,221.062 345.417 C 223.445 351.468,228.530 354.556,236.146 354.575 C 244.665 354.597,249.556 351.508,249.943 345.862 C 250.094 343.659,249.814 342.440,246.897 332.604 L 244.425 324.271 243.515 324.240 C 243.014 324.223,240.733 324.391,238.445 324.614 M199.375 328.240 C 199.089 328.278,195.310 328.616,190.979 328.992 C 186.648 329.368,182.999 329.741,182.870 329.821 C 182.644 329.960,190.672 357.753,191.071 358.212 C 191.198 358.359,201.237 357.595,201.381 357.427 C 201.396 357.410,200.671 354.918,199.769 351.890 C 198.867 348.862,198.169 346.345,198.218 346.296 C 198.347 346.167,200.851 347.056,201.458 347.447 C 202.622 348.197,208.366 354.436,209.907 356.625 C 209.985 356.735,220.836 355.692,220.966 355.562 C 221.252 355.276,211.274 344.804,209.686 343.723 C 208.805 343.123,208.792 343.013,209.559 342.617 C 214.158 340.239,212.565 332.178,206.979 329.559 C 204.928 328.597,201.356 327.977,199.375 328.240 M164.622 331.361 C 158.170 331.963,152.861 332.490,152.824 332.530 C 152.739 332.625,154.921 339.990,155.082 340.152 C 155.149 340.219,156.865 340.122,158.894 339.936 C 160.924 339.750,162.602 339.618,162.624 339.643 C 162.646 339.667,164.031 344.318,165.702 349.978 C 167.373 355.638,168.778 360.305,168.822 360.350 C 168.867 360.395,171.201 360.225,174.009 359.971 L 179.113 359.511 178.934 358.870 C 178.836 358.517,177.455 353.843,175.867 348.483 C 174.278 343.122,173.035 338.705,173.104 338.666 C 173.173 338.627,174.748 338.475,176.604 338.327 C 178.460 338.179,180.083 337.994,180.211 337.915 C 180.372 337.816,180.102 336.604,179.336 333.991 L 178.229 330.210 177.292 330.237 C 176.776 330.252,171.075 330.758,164.622 331.361 M21.835 333.385 C 21.362 333.760,15.833 342.021,15.833 342.351 C 15.833 342.869,16.349 343.290,19.944 345.709 C 24.597 348.840,23.738 349.086,27.513 343.542 C 31.220 338.097,31.347 338.933,26.306 335.541 C 22.605 333.050,22.389 332.946,21.835 333.385 M137.708 333.426 C 131.598 334.740,128.831 338.670,130.412 343.789 C 131.579 347.568,133.993 349.398,140.103 351.136 C 144.880 352.494,146.091 353.221,145.636 354.457 C 144.931 356.374,139.889 356.105,135.552 353.920 C 133.978 353.128,134.023 352.991,134.576 356.926 C 135.224 361.527,135.097 361.374,139.063 362.376 C 149.726 365.073,157.934 359.969,155.341 352.253 C 153.908 347.984,151.968 346.471,145.656 344.695 C 140.367 343.208,138.924 342.127,140.535 340.859 C 141.766 339.891,144.253 340.160,148.077 341.672 C 150.210 342.516,150.067 342.815,149.541 338.591 L 149.096 335.017 147.621 334.493 C 144.126 333.253,140.388 332.850,137.708 333.426 M200.104 334.811 C 201.028 335.245,201.784 336.217,202.107 337.385 C 202.675 339.443,201.262 340.697,198.068 340.967 L 196.551 341.095 195.625 337.891 C 195.115 336.129,194.717 334.641,194.742 334.583 C 194.946 334.097,198.946 334.267,200.104 334.811 M117.045 335.706 C 114.445 335.952,112.256 336.216,112.179 336.293 C 112.103 336.369,112.813 338.852,113.758 341.810 C 114.702 344.767,115.687 347.871,115.946 348.706 L 116.418 350.225 115.344 349.309 C 105.536 340.949,100.932 337.292,100.222 337.298 C 99.151 337.306,91.436 338.078,91.326 338.187 C 91.232 338.282,99.531 366.475,99.704 366.648 C 99.821 366.765,109.819 365.875,109.959 365.735 C 110.014 365.681,109.106 362.620,107.941 358.934 C 106.777 355.248,105.861 352.195,105.906 352.150 C 105.951 352.105,109.414 354.935,113.602 358.439 L 121.216 364.809 125.973 364.361 C 128.589 364.114,130.752 363.892,130.779 363.868 C 130.982 363.688,122.348 335.313,122.083 335.288 C 121.911 335.271,119.644 335.459,117.045 335.706 M69.583 339.507 C 59.566 340.789,55.408 348.452,59.479 358.125 C 62.334 364.907,68.306 368.867,76.042 369.106 C 86.988 369.444,92.661 363.684,90.711 354.210 C 88.731 344.584,79.594 338.226,69.583 339.507 M39.688 342.279 C 31.658 343.609,27.378 348.981,28.556 356.250 C 30.256 366.744,39.877 373.430,50.741 371.667 C 53.475 371.223,57.803 369.395,57.615 368.764 C 57.561 368.584,56.997 366.663,56.361 364.494 C 55.021 359.928,55.192 360.252,54.413 360.806 C 48.512 365.008,41.098 363.108,39.484 356.979 C 38.088 351.680,44.208 348.922,51.411 351.604 C 52.623 352.055,52.635 352.273,51.187 347.388 L 49.892 343.021 48.123 342.651 C 46.126 342.233,41.261 342.018,39.688 342.279 M76.238 349.117 C 79.517 350.771,81.390 356.441,79.427 358.774 C 77.231 361.384,72.439 360.525,70.269 357.133 C 66.693 351.544,70.613 346.280,76.238 349.117 M4.688 353.920 C -1.008 356.973,-0.770 356.301,2.015 361.471 C 4.686 366.431,3.850 366.289,10.208 362.860 C 15.390 360.066,15.183 360.668,12.616 355.865 C 9.756 350.516,10.636 350.732,4.688 353.920 " stroke="none" fill="#000000" fill-rule="evenodd"></path></g></svg>